<?xml version="1.0" encoding="UTF-8"?>
<svg version="1.1" xmlns="http://www.w3.org/2000/svg" width="1887" height="612">
<path d="M0 0 C69.96 0 139.92 0 212 0 C212.04033135 102.34752015 212.04033135 102.34752015 212.04882812 144.98242188 C212.05078615 154.74210614 212.05280667 164.50179038 212.05493164 174.26147461 C212.05519539 175.48477633 212.05545914 176.70807806 212.05573088 177.96844953 C212.0600861 197.74545245 212.06797316 217.52245247 212.0771528 237.29945367 C212.0864879 257.57979086 212.0920553 277.86012654 212.09408849 298.1404658 C212.09546402 310.66532189 212.09981621 323.19016982 212.10791647 335.71502341 C212.11318216 344.29127434 212.1148047 352.86752101 212.11350138 361.44377344 C212.11285772 366.39973005 212.11387862 371.35567234 212.11920547 376.31162643 C212.12403847 380.84090486 212.12433931 385.3701592 212.12089889 389.89943869 C212.1204731 391.54547569 212.12176967 393.19151414 212.12488318 394.83754825 C212.12884561 397.06008407 212.12676438 399.28253077 212.12304783 401.50506496 C212.12342755 402.7440924 212.12380727 403.98311984 212.1241985 405.25969356 C212 408 212 408 211 409 C208.28146798 409.09785805 205.5883333 409.1299378 202.86936951 409.12025452 C201.57877876 409.12153854 201.57877876 409.12153854 200.26211548 409.12284851 C197.34716777 409.12451408 194.43227651 409.11896333 191.51733398 409.11352539 C189.4046151 409.11321931 187.29189612 409.11335212 185.17917728 409.11389065 C179.50023362 409.11411723 173.82131085 409.10830408 168.14237213 409.10128021 C162.82151724 409.09560265 157.50066754 409.09531804 152.17980957 409.09460449 C136.59903692 409.08934854 121.0182682 409.07538751 105.4375 409.0625 C70.643125 409.041875 35.84875 409.02125 0 409 C0 274.03 0 139.06 0 0 Z " fill="#60AE00" transform="translate(1391,174)"/>
<path d="M0 0 C69.63 0 139.26 0 211 0 C211.04033135 102.34752015 211.04033135 102.34752015 211.04882812 144.98242188 C211.05078615 154.74210614 211.05280667 164.50179038 211.05493164 174.26147461 C211.05519539 175.48477633 211.05545914 176.70807806 211.05573088 177.96844953 C211.0600861 197.74545245 211.06797316 217.52245247 211.0771528 237.29945367 C211.0864879 257.57979086 211.0920553 277.86012654 211.09408849 298.1404658 C211.09546402 310.66532189 211.09981621 323.19016982 211.10791647 335.71502341 C211.11318216 344.29127434 211.1148047 352.86752101 211.11350138 361.44377344 C211.11285772 366.39973005 211.11387862 371.35567234 211.11920547 376.31162643 C211.12403847 380.84090486 211.12433931 385.3701592 211.12089889 389.89943869 C211.1204731 391.54547569 211.12176967 393.19151414 211.12488318 394.83754825 C211.12884561 397.06008407 211.12676438 399.28253077 211.12304783 401.50506496 C211.12342755 402.7440924 211.12380727 403.98311984 211.1241985 405.25969356 C211 408 211 408 210 409 C207.30898483 409.10006262 204.64356519 409.13439962 201.95202637 409.12698364 C201.09841506 409.12854363 200.24480376 409.13010362 199.36532545 409.13171089 C196.48246544 409.13572461 193.59965735 409.13252981 190.71679688 409.12939453 C188.65918446 409.13074841 186.60157228 409.13252826 184.54396057 409.13470459 C178.93875349 409.13928055 173.33356473 409.1374887 167.72835732 409.1343255 C161.87648085 409.13180274 156.02460601 409.13413921 150.17272949 409.13571167 C140.34350298 409.13753361 130.51428397 409.13512641 120.68505859 409.13037109 C109.3032895 409.12492843 97.92153831 409.12669107 86.53976965 409.1321975 C76.7869468 409.13672793 67.03412935 409.13737952 57.28130579 409.13475883 C51.4479051 409.13319567 45.61451283 409.13300335 39.78111267 409.13629532 C34.2983052 409.13917302 28.81552094 409.1372002 23.33271599 409.13140106 C21.31421383 409.13007292 19.29570973 409.13046849 17.27720833 409.13266373 C14.53410326 409.13537312 11.79107381 409.13199671 9.04797363 409.12698364 C7.83355378 409.13032973 7.83355378 409.13032973 6.5946002 409.13374341 C1.11414983 409.11414983 1.11414983 409.11414983 0 408 C-0.09803995 405.83685375 -0.12371144 403.6704317 -0.12304783 401.50506496 C-0.12420167 400.81505466 -0.12535552 400.12504435 -0.12654433 399.41412464 C-0.12921764 397.07288883 -0.12468301 394.73172008 -0.12025452 392.39048767 C-0.12069007 390.7067059 -0.12156469 389.0229242 -0.12284368 387.33914286 C-0.12509171 382.68955152 -0.12106318 378.03998299 -0.11606562 373.39039457 C-0.11176569 368.38491207 -0.11320722 363.37943097 -0.1139679 358.37394714 C-0.11449342 349.69407278 -0.11134363 341.0142059 -0.10573006 332.33433342 C-0.09761893 319.78454032 -0.09500024 307.23475086 -0.09374207 294.68495543 C-0.09155093 274.32601966 -0.0848892 253.96708789 -0.07543945 233.6081543 C-0.06626691 213.82592794 -0.05919677 194.04370266 -0.05493164 174.26147461 C-0.05452964 172.41516476 -0.05452964 172.41516476 -0.05411953 170.53155571 C-0.05204023 160.90597997 -0.05008326 151.2804042 -0.04816496 141.65482843 C-0.0387234 94.43654862 -0.01860697 47.21827881 0 0 Z " fill="#60AE00" transform="translate(721,174)"/>
<path d="M0 0 C12.40224159 0 12.40224159 0 16.515625 0.6640625 C17.44455566 0.81327148 18.37348633 0.96248047 19.33056641 1.11621094 C20.77568604 1.36806152 20.77568604 1.36806152 22.25 1.625 C23.80146729 1.89231934 23.80146729 1.89231934 25.38427734 2.16503906 C84.34348218 12.74172447 138.01852617 42.90744983 172.96484375 92.1484375 C194.14773905 122.61123066 206.52445885 157.22724844 211 194 C211.08836844 194.70475118 211.17673689 195.40950235 211.26778316 196.13560963 C212.30183261 205.69881499 212.13251996 215.27844254 212.11352539 224.88354492 C212.11321866 226.91738286 212.11335322 228.9512209 212.11389065 230.98505878 C212.11411539 236.40649378 212.10834095 241.82790648 212.10128021 247.24933624 C212.09556378 252.34611579 212.09531592 257.44289005 212.09460449 262.53967285 C212.08936777 277.42228483 212.07540654 292.3048927 212.0625 307.1875 C212.041875 340.455625 212.02125 373.72375 212 408 C142.04 408 72.08 408 0 408 C0 273.36 0 138.72 0 0 Z " fill="#60AE00" transform="translate(264,175)"/>
<path d="M0 0 C0 134.64 0 269.28 0 408 C-69.96 408 -139.92 408 -212 408 C-212.061875 375.020625 -212.12375 342.04125 -212.1875 308.0625 C-212.21481201 297.69207275 -212.24212402 287.32164551 -212.27026367 276.63696289 C-212.28381348 263.86413574 -212.28381348 263.86413574 -212.28633118 257.86351013 C-212.28909908 253.71872529 -212.30023186 249.57405854 -212.31672668 245.42930603 C-212.48999358 199.89283311 -212.48999358 199.89283311 -209 180 C-208.87798344 179.29343797 -208.75596687 178.58687593 -208.63025284 177.85890293 C-207.97540485 174.14272822 -207.20625578 170.47846123 -206.3125 166.8125 C-206.05758789 165.74555908 -205.80267578 164.67861816 -205.54003906 163.5793457 C-194.30543665 118.3557087 -168.09928285 76.4727023 -131 48 C-130.47277344 47.58572754 -129.94554687 47.17145508 -129.40234375 46.74462891 C-93.76537985 18.82831815 -45.49969388 0 0 0 Z " fill="#60AE00" transform="translate(249,175)"/>
<path d="M0 0 C69.96 0 139.92 0 212 0 C212 134.64 212 269.28 212 408 C199.59775841 408 199.59775841 408 195.484375 407.3359375 C194.55544434 407.18672852 193.62651367 407.03751953 192.66943359 406.88378906 C191.70602051 406.71588867 190.74260742 406.54798828 189.75 406.375 C188.71568848 406.19678711 187.68137695 406.01857422 186.61572266 405.83496094 C127.65651782 395.25827553 73.98147383 365.09255017 39.03515625 315.8515625 C17.85226095 285.38876934 5.47554115 250.77275156 1 214 C0.91163156 213.29524882 0.82326311 212.59049765 0.73221684 211.86439037 C-0.30183261 202.30118501 -0.13251996 192.72155746 -0.11352539 183.11645508 C-0.11321866 181.08261714 -0.11335322 179.0487791 -0.11389065 177.01494122 C-0.11411539 171.59350622 -0.10834095 166.17209352 -0.10128021 160.75066376 C-0.09556378 155.65388421 -0.09531592 150.55710995 -0.09460449 145.46032715 C-0.08936777 130.57771517 -0.07540654 115.6951073 -0.0625 100.8125 C-0.041875 67.544375 -0.02125 34.27625 0 0 Z " fill="#60AE00" transform="translate(486,174)"/>
<path d="M0 0 C138.6 0 277.2 0 420 0 C420 10.33154484 419.85786881 19.52919194 418.25 29.5625 C418.06808105 30.73288818 417.88616211 31.90327637 417.69873047 33.10913086 C416.33056103 41.60913438 414.6104279 49.78536676 412 58 C411.68724121 59.02383789 411.68724121 59.02383789 411.36816406 60.06835938 C406.66990025 75.41102061 400.8633982 90.54743115 392 104 C391.14535156 105.37285156 391.14535156 105.37285156 390.2734375 106.7734375 C385.2928639 114.582485 379.54954771 121.48934809 373.41357422 128.39404297 C372.16073354 129.81739115 370.93923265 131.26819013 369.72265625 132.72265625 C363.67354764 139.83064048 356.6373303 145.66502558 349 151 C348.34 151 347.68 151 347 151 C347 151.66 347 152.32 347 153 C344.41957267 154.98521283 341.51006405 156.50949122 338.6875 158.125 C337.83389893 158.61492432 336.98029785 159.10484863 336.10083008 159.60961914 C327.36637393 164.51529453 318.38296379 168.51082512 309 172 C307.84628906 172.43183594 306.69257812 172.86367188 305.50390625 173.30859375 C286.22816505 179.62585347 264.4320604 178.28700298 244.42016602 178.22705078 C241.73700053 178.22648513 239.05384593 178.22671871 236.37068176 178.22793579 C230.64540774 178.22897361 224.92018005 178.22281429 219.19491768 178.21146011 C210.9176307 178.19505571 202.64036563 178.18998202 194.36306416 178.18748413 C180.92668184 178.18313016 167.49032409 178.16988418 154.05395508 178.15087891 C141.01847452 178.13246009 127.98300072 178.11835614 114.94750977 178.10986328 C114.13291288 178.10932729 113.318316 178.10879129 112.47903436 178.10823905 C106.10631239 178.10407908 99.73359027 178.10016562 93.3608681 178.09632993 C62.24055615 178.07753599 31.1203059 178.03728223 0 178 C0 119.26 0 60.52 0 0 Z " fill="#60AE01" transform="translate(956,172)"/>
<path d="M0 0 C23.41590545 1.17079527 23.41590545 1.17079527 30.4375 2.25 C31.29400146 2.37858398 32.15050293 2.50716797 33.03295898 2.63964844 C64.15108722 7.55318642 95.29986296 18.46797946 121 37 C121.63164063 37.44811035 122.26328125 37.8962207 122.9140625 38.35791016 C132.02865369 44.8573351 140.51731418 51.81379311 148.55664062 59.60351562 C149.90628102 60.90932466 151.27287002 62.19755227 152.640625 63.484375 C185.69755787 95.29387644 208.61849845 144.86800356 210.09073544 190.83285999 C210.12238891 194.08503156 210.12371865 197.33582266 210.11352539 200.58813477 C210.11364593 201.83815497 210.11376646 203.08817518 210.11389065 204.37607479 C210.11327087 207.73199085 210.10835406 211.08784377 210.10128021 214.44374847 C210.09555003 217.60243119 210.09531518 220.76111251 210.09460449 223.9197998 C210.08937451 233.13403793 210.07541325 242.34826944 210.0625 251.5625 C210.041875 272.166875 210.02125 292.77125 210 314 C140.7 314 71.4 314 0 314 C0 210.38 0 106.76 0 0 Z " fill="#60AE00" transform="translate(1626,269)"/>
<path d="M0 0 C63.36 0 126.72 0 192 0 C192.04030303 54.37774939 192.04030303 54.37774939 192.04882812 77.08789062 C192.05477192 92.79598312 192.06177582 108.50407027 192.07543945 124.2121582 C192.08538393 135.65002559 192.09185286 147.08788865 192.09408849 158.52576023 C192.095396 164.58609715 192.09848439 170.64642171 192.10573006 176.70675468 C192.11248656 182.40376745 192.11461772 188.10076269 192.11310768 193.79777908 C192.11338418 195.89529706 192.11539148 197.99281559 192.11920547 200.09033012 C192.12413694 202.94077083 192.12300032 205.79114424 192.12025452 208.6415863 C192.12462378 209.90372071 192.12462378 209.90372071 192.12908131 211.19135278 C192.11412121 216.88587879 192.11412121 216.88587879 191 218 C188.5336934 218.09770671 186.09540428 218.12996312 183.62864685 218.12025452 C182.8497258 218.12111053 182.07080475 218.12196655 181.26828003 218.12284851 C178.62992114 218.1245138 175.99162465 218.11896379 173.35327148 218.11352539 C171.44079878 218.1132193 169.52832596 218.11335213 167.61585331 218.11389065 C162.47559486 218.11411722 157.33535949 218.10830444 152.19510651 218.10128021 C147.37880884 218.09560227 142.5625169 218.09531802 137.74621582 218.09460449 C123.64330747 218.08934873 109.54040345 218.0753877 95.4375 218.0625 C63.943125 218.041875 32.44875 218.02125 0 218 C0 146.06 0 74.12 0 0 Z " fill="#60AE00" transform="translate(1038,367)"/>
<path d="M0 0 C6.8947266 6.15364274 11.45175723 14.80223703 12.16113281 24.11547852 C12.44111592 39.20689359 12.08869833 52.58856938 1.58984375 64.5234375 C-7.96083072 73.39359708 -20.05305039 75.54204328 -32.67578125 75.22265625 C-44.0142102 74.46320801 -53.54750285 71.28576655 -61.921875 63.39453125 C-70.07806364 53.99651689 -72.54078271 42.03830464 -72.24609375 29.88671875 C-71.25311527 18.23892358 -67.82285004 8.19058982 -59.125 0.125 C-42.71750701 -13.10684918 -16.62309043 -12.70499632 0 0 Z M-42.75 16.8125 C-47.19755698 24.59572472 -47.00813449 34.07826882 -45.53515625 42.73046875 C-43.98571393 48.20394252 -41.67447967 50.81737554 -37 54 C-33.0437573 55.97812135 -28.31209207 55.42084067 -24 55 C-19.19753774 52.9043801 -16.83043455 50.07758043 -14.75390625 45.39453125 C-11.7816223 35.95406462 -12.32401848 25.35196304 -16.75 16.5 C-19.94903182 12.9455202 -22.60789753 11.31557052 -27.3984375 10.68359375 C-34.15530427 10.36908494 -37.97346465 11.8653741 -42.75 16.8125 Z " fill="#000000" transform="translate(1127,45)"/>
<path d="M0 0 C4.14581887 -0.02886751 8.29161216 -0.04675327 12.4375 -0.0625 C14.21350586 -0.07506836 14.21350586 -0.07506836 16.02539062 -0.08789062 C17.15009766 -0.09111328 18.27480469 -0.09433594 19.43359375 -0.09765625 C20.47572021 -0.10289307 21.51784668 -0.10812988 22.59155273 -0.11352539 C25 0 25 0 26 1 C26.10730964 2.6611048 26.14623694 4.32668315 26.15771484 5.99121094 C26.16797699 7.05611755 26.17823914 8.12102417 26.18881226 9.21820068 C26.19611359 10.37853821 26.20341492 11.53887573 26.2109375 12.734375 C26.23901073 15.1692775 26.26767522 17.60417325 26.296875 20.0390625 C26.33813443 23.89485453 26.37500356 27.75052103 26.40136719 31.60644531 C26.42895831 35.31602386 26.47483935 39.02502018 26.5234375 42.734375 C26.52669037 43.8866156 26.52994324 45.0388562 26.53329468 46.22601318 C26.55814438 47.84228607 26.55814438 47.84228607 26.58349609 49.49121094 C26.59562637 50.90898834 26.59562637 50.90898834 26.60800171 52.35540771 C27.07617717 55.51392456 28.15911621 57.41287113 30 60 C34.23421694 62.91377506 39.06172962 62.52023918 44 62 C46.97521898 60.76032543 48.40592484 59.9490831 50.10507202 57.23455811 C51.18704338 54.53296879 51.27881276 52.40627254 51.31884766 49.49707031 C51.33871735 48.39623108 51.35858704 47.29539185 51.37905884 46.16119385 C51.39061005 44.97878113 51.40216125 43.79636841 51.4140625 42.578125 C51.43342865 41.36300232 51.4527948 40.14787964 51.4727478 38.89593506 C51.53253806 35.01402816 51.57892746 31.1320916 51.625 27.25 C51.66318022 24.61847663 51.70223198 21.98696576 51.7421875 19.35546875 C51.83987973 12.90371073 51.9194549 6.45208617 52 0 C60.58 0 69.16 0 78 0 C78.06918655 7.32864908 78.12882753 14.65614683 78.16479492 21.98486328 C78.17980232 24.4735093 78.20021464 26.96212923 78.22631836 29.45068359 C78.26305706 33.04531325 78.2798075 36.63959064 78.29296875 40.234375 C78.30845261 41.33174988 78.32393646 42.42912476 78.33988953 43.55975342 C78.34194867 53.19414535 77.39138983 63.36583992 71 71 C70.51789063 71.58394531 70.03578125 72.16789062 69.5390625 72.76953125 C63.69486017 79.28595404 56.56087703 81.8805827 48 83 C35.02543407 83.63254686 21.45065228 83.71081211 10.875 75.3125 C4.35549168 69.36824241 1.47953985 62.59764449 0 54 C-0.08345812 52.15995021 -0.11783906 50.31727824 -0.11352539 48.4753418 C-0.11344986 47.39459885 -0.11337433 46.3138559 -0.11329651 45.20036316 C-0.10813522 44.0449855 -0.10297394 42.88960785 -0.09765625 41.69921875 C-0.0962413 40.50770706 -0.09482635 39.31619537 -0.09336853 38.08857727 C-0.08777728 34.28819249 -0.07522632 30.48786693 -0.0625 26.6875 C-0.05748387 24.10872481 -0.05292116 21.5299487 -0.04882812 18.95117188 C-0.03781071 12.63409443 -0.02108122 6.31705145 0 0 Z " fill="#000000" transform="translate(888,37)"/>
<path d="M0 0 C9.24 0 18.48 0 28 0 C34.37207031 16.9921875 34.37207031 16.9921875 40.74414062 33.984375 C41.43438828 35.82491455 41.43438828 35.82491455 42.13858032 37.70263672 C43.06341601 40.1690278 43.98803806 42.635499 44.91244507 45.10205078 C47.1698573 51.12462016 49.43074455 57.14583413 51.69970703 63.1640625 C52.12055069 64.28180054 52.54139435 65.39953857 52.97499084 66.55114746 C53.76957597 68.6611104 54.56544877 70.77058899 55.36277771 72.8795166 C55.88618492 74.27043518 55.88618492 74.27043518 56.42016602 75.68945312 C56.88012718 76.90816101 56.88012718 76.90816101 57.34938049 78.15148926 C58 80 58 80 58 81 C49.09 81 40.18 81 31 81 C27 70 27 70 27 68 C13.635 68.495 13.635 68.495 0 69 C-1.32 72.96 -2.64 76.92 -4 81 C-12.58 81 -21.16 81 -30 81 C-28.01823432 74.3941144 -25.97521242 67.96831936 -23.55859375 61.53125 C-23.23436432 60.66020126 -22.91013489 59.78915253 -22.57608032 58.89170837 C-21.53321877 56.09321546 -20.48558466 53.2965405 -19.4375 50.5 C-18.71725067 48.57173924 -17.99711784 46.64343496 -17.27709961 44.71508789 C-2.22456797 4.44913595 -2.22456797 4.44913595 0 0 Z M13 23 C11.82419832 26.74719776 10.66095767 30.49817925 9.5 34.25 C8.99919922 35.84521484 8.99919922 35.84521484 8.48828125 37.47265625 C8.17246094 38.49746094 7.85664062 39.52226563 7.53125 40.578125 C7.23798828 41.52075195 6.94472656 42.46337891 6.64257812 43.43457031 C5.83801999 46.20590908 5.83801999 46.20590908 6 50 C11.28 50 16.56 50 22 50 C19.36 41.09 16.72 32.18 14 23 C13.67 23 13.34 23 13 23 Z " fill="#000000" transform="translate(827,37)"/>
<path d="M0 0 C25.08 0 50.16 0 76 0 C76 6.93 76 13.86 76 21 C67.75 21 59.5 21 51 21 C51 40.8 51 60.6 51 81 C42.42 81 33.84 81 25 81 C25 61.2 25 41.4 25 21 C16.75 21 8.5 21 0 21 C0 14.07 0 7.14 0 0 Z " fill="#000000" transform="translate(976,37)"/>
<path d="M0 0 C0.33 0 0.66 0 1 0 C1 3.3 1 6.6 1 10 C0.67 10 0.34 10 0 10 C0 6.7 0 3.4 0 0 Z " fill="#699B2E" transform="translate(1377,173)"/>
<path d="" fill="#6E9D36" transform="translate(0,0)"/>
<path d="" fill="#679A28" transform="translate(0,0)"/>
<path d="" fill="#72A23A" transform="translate(0,0)"/>
</svg>
